<?xml version="1.0" encoding="UTF-8" standalone="no"?>
<svg width="11in" height="8.5in" viewBox="0 0 110 110">layer1" inkscape:label="Layer 1" style="display:inline">
<g inkscape:groupmode="layer" id="layer3" inkscape:label="Layer 3" style="display:inline"><path style="fill:none;stroke:#000000;stroke-width:0.1;stroke-linecap:round;stroke-linejoin:round;stroke-opacity:0.2;stroke-miterlimit:4;" d="M 0,0 100,0 100,100 0,100 0,0"/></g>
<g inkscape:groupmode="layer" id="layer2" inkscape:label="Layer 2" style="display:inline"><path style="fill:none;stroke:#000000;stroke-width:0.1;stroke-linecap:round;stroke-linejoin:round;stroke-opacity:0.2;stroke-miterlimit:4;" d="M 50,50 50,0 100,0 100,50 50,50"/></g>
<g inkscape:groupmode="layer" id="layer1" inkscape:label="Layer 1" style="display:inline"><g>
<circle style="fill:#377eb8;stroke:none;fill-opacity:1" id="C-K" cx="100" cy="0" r="0.6" />
<text style="font-size:1px;font-weight:bold;fill:#377eb8;"><tspan x="100" y="0">C-K,2</tspan></text>
<path style="fill:none;stroke:#377eb8;stroke-width:0.3;stroke-linecap:round;stroke-linejoin:round;stroke-opacity:1;stroke-miterlimit:4;" d="M 84,5 100,0"/>
<circle style="fill:#377eb8;stroke:none;fill-opacity:1" id="C-K" cx="84" cy="5" r="0.6" />
<path style="fill:none;stroke:#377eb8;stroke-width:0.3;stroke-linecap:round;stroke-linejoin:round;stroke-opacity:1;stroke-miterlimit:4;" d="M 79,5 84,5"/>
<circle style="fill:#377eb8;stroke:none;fill-opacity:1" id="C-K" cx="79" cy="5" r="0.6" />
<text style="font-size:1px;font-weight:bold;fill:#377eb8;"><tspan x="79" y="4">C-K,9</tspan></text>
<circle style="fill:#4daf4a;stroke:none;fill-opacity:1" id="IPE" cx="100" cy="0" r="0.6" />
<text style="font-size:1px;font-weight:bold;fill:#4daf4a;"><tspan x="100" y="0">IPE,2</tspan></text>
<path style="fill:none;stroke:#4daf4a;stroke-width:0.3;stroke-linecap:round;stroke-linejoin:round;stroke-opacity:1;stroke-miterlimit:4;" d="M 82,4 100,0"/>
<circle style="fill:#4daf4a;stroke:none;fill-opacity:1" id="IPE" cx="82" cy="4" r="0.6" />
<path style="fill:none;stroke:#4daf4a;stroke-width:0.3;stroke-linecap:round;stroke-linejoin:round;stroke-opacity:1;stroke-miterlimit:4;" d="M 76,6 82,4"/>
<circle style="fill:#4daf4a;stroke:none;fill-opacity:1" id="IPE" cx="76" cy="6" r="0.6" />
<text style="font-size:1px;font-weight:bold;fill:#4daf4a;"><tspan x="76" y="5">IPE,9</tspan></text>
<circle style="fill:#f451a7;stroke:none;fill-opacity:1" id="RCIPE" cx="100" cy="0" r="0.6" />
<text style="font-size:1px;font-weight:bold;fill:#f451a7;"><tspan x="100" y="0">RCIPE,2</tspan></text>
<path style="fill:none;stroke:#f451a7;stroke-width:0.3;stroke-linecap:round;stroke-linejoin:round;stroke-opacity:1;stroke-miterlimit:4;" d="M 77,0 100,0"/>
<circle style="fill:#f451a7;stroke:none;fill-opacity:1" id="RCIPE" cx="77" cy="0" r="0.6" />
<path style="fill:none;stroke:#f451a7;stroke-width:0.3;stroke-linecap:round;stroke-linejoin:round;stroke-opacity:1;stroke-miterlimit:4;" d="M 68,0 77,0"/>
<circle style="fill:#f451a7;stroke:none;fill-opacity:1" id="RCIPE" cx="68" cy="0" r="0.6" />
<text style="font-size:1px;font-weight:bold;fill:#f451a7;"><tspan x="68" y="0">RCIPE,9</tspan></text>
<circle style="fill:#dbdb00;stroke:none;fill-opacity:1" id="STAR/sim/NT" cx="100" cy="0" r="0.6" />
<text style="font-size:1px;font-weight:bold;fill:#dbdb00;"><tspan x="100" y="0">STAR/sim/NT,2</tspan></text>
<path style="fill:none;stroke:#dbdb00;stroke-width:0.3;stroke-linecap:round;stroke-linejoin:round;stroke-opacity:1;stroke-miterlimit:4;" d="M 78,9 100,0"/>
<circle style="fill:#dbdb00;stroke:none;fill-opacity:1" id="STAR/sim/NT" cx="78" cy="9" r="0.6" />
<path style="fill:none;stroke:#dbdb00;stroke-width:0.3;stroke-linecap:round;stroke-linejoin:round;stroke-opacity:1;stroke-miterlimit:4;" d="M 75,8 78,9"/>
<circle style="fill:#dbdb00;stroke:none;fill-opacity:1" id="STAR/sim/NT" cx="75" cy="8" r="0.6" />
<text style="font-size:1px;font-weight:bold;fill:#dbdb00;"><tspan x="75" y="7">STAR/sim/NT,9</tspan></text>
<circle style="fill:#ff7f00;stroke:none;fill-opacity:1" id="IRV-BTR" cx="100" cy="5" r="0.6" />
<text style="font-size:1px;font-weight:bold;fill:#ff7f00;"><tspan x="100" y="4">IRV-BTR,2</tspan></text>
<path style="fill:none;stroke:#ff7f00;stroke-width:0.3;stroke-linecap:round;stroke-linejoin:round;stroke-opacity:1;stroke-miterlimit:4;" d="M 67,6 100,5"/>
<circle style="fill:#ff7f00;stroke:none;fill-opacity:1" id="IRV-BTR" cx="67" cy="6" r="0.6" />
<path style="fill:none;stroke:#ff7f00;stroke-width:0.3;stroke-linecap:round;stroke-linejoin:round;stroke-opacity:1;stroke-miterlimit:4;" d="M 55,5 67,6"/>
<circle style="fill:#ff7f00;stroke:none;fill-opacity:1" id="IRV-BTR" cx="55" cy="5" r="0.6" />
<text style="font-size:1px;font-weight:bold;fill:#ff7f00;"><tspan x="55" y="4">IRV-BTR,9</tspan></text>
<circle style="fill:#984ea3;stroke:none;fill-opacity:1" id="IRV" cx="100" cy="12" r="0.6" />
<text style="font-size:1px;font-weight:bold;fill:#984ea3;"><tspan x="100" y="11">IRV,2</tspan></text>
<path style="fill:none;stroke:#984ea3;stroke-width:0.3;stroke-linecap:round;stroke-linejoin:round;stroke-opacity:1;stroke-miterlimit:4;" d="M 67,6 100,12"/>
<circle style="fill:#984ea3;stroke:none;fill-opacity:1" id="IRV" cx="67" cy="6" r="0.6" />
<path style="fill:none;stroke:#984ea3;stroke-width:0.3;stroke-linecap:round;stroke-linejoin:round;stroke-opacity:1;stroke-miterlimit:4;" d="M 55,5 67,6"/>
<circle style="fill:#984ea3;stroke:none;fill-opacity:1" id="IRV" cx="55" cy="5" r="0.6" />
<text style="font-size:1px;font-weight:bold;fill:#984ea3;"><tspan x="55" y="4">IRV,9</tspan></text>
<circle style="fill:#e41a1c;stroke:none;fill-opacity:1" id="Borda/NT" cx="100" cy="0" r="0.6" />
<text style="font-size:1px;font-weight:bold;fill:#e41a1c;"><tspan x="100" y="0">Borda/NT,2</tspan></text>
<path style="fill:none;stroke:#e41a1c;stroke-width:0.3;stroke-linecap:round;stroke-linejoin:round;stroke-opacity:1;stroke-miterlimit:4;" d="M 80,18 100,0"/>
<circle style="fill:#e41a1c;stroke:none;fill-opacity:1" id="Borda/NT" cx="80" cy="18" r="0.6" />
<path style="fill:none;stroke:#e41a1c;stroke-width:0.3;stroke-linecap:round;stroke-linejoin:round;stroke-opacity:1;stroke-miterlimit:4;" d="M 81,15 80,18"/>
<circle style="fill:#e41a1c;stroke:none;fill-opacity:1" id="Borda/NT" cx="81" cy="15" r="0.6" />
<text style="font-size:1px;font-weight:bold;fill:#e41a1c;"><tspan x="81" y="14">Borda/NT,9</tspan></text>
<circle style="fill:#808080;stroke:none;fill-opacity:1" id="Plur" cx="100" cy="44" r="0.6" />
<text style="font-size:1px;font-weight:bold;fill:#808080;"><tspan x="100" y="43">Plur,2</tspan></text>
<path style="fill:none;stroke:#808080;stroke-width:0.3;stroke-linecap:round;stroke-linejoin:round;stroke-opacity:1;stroke-miterlimit:4;" d="M 89,12 100,44"/>
<circle style="fill:#808080;stroke:none;fill-opacity:1" id="Plur" cx="89" cy="12" r="0.6" />
<path style="fill:none;stroke:#808080;stroke-width:0.3;stroke-linecap:round;stroke-linejoin:round;stroke-opacity:1;stroke-miterlimit:4;" d="M 96,9 89,12"/>
<circle style="fill:#808080;stroke:none;fill-opacity:1" id="Plur" cx="96" cy="9" r="0.6" />
<text style="font-size:1px;font-weight:bold;fill:#808080;"><tspan x="96" y="8">Plur,9</tspan></text>
</g>
</svg>
