<?xml version="1.0" encoding="UTF-8" standalone="no"?>
<svg width="11in" height="8.5in" viewBox="0 0 110 110">layer1" inkscape:label="Layer 1" style="display:inline">
<g inkscape:groupmode="layer" id="layer3" inkscape:label="Layer 3" style="display:inline"><path style="fill:none;stroke:#000000;stroke-width:0.1;stroke-linecap:round;stroke-linejoin:round;stroke-opacity:0.2;stroke-miterlimit:4;" d="M 0,0 100,0 100,100 0,100 0,0"/></g>
<g inkscape:groupmode="layer" id="layer2" inkscape:label="Layer 2" style="display:inline"><path style="fill:none;stroke:#000000;stroke-width:0.1;stroke-linecap:round;stroke-linejoin:round;stroke-opacity:0.2;stroke-miterlimit:4;" d="M 50,50 50,0 100,0 100,50 50,50"/></g>
<g inkscape:groupmode="layer" id="layer1" inkscape:label="Layer 1" style="display:inline"><g>
<circle style="fill:#377eb8;stroke:none;fill-opacity:1" id="C-K" cx="100" cy="0" r="0.6" />
<text style="font-size:1px;font-weight:bold;fill:#377eb8;"><tspan x="100" y="0">C-K,2</tspan></text>
<path style="fill:none;stroke:#377eb8;stroke-width:0.3;stroke-linecap:round;stroke-linejoin:round;stroke-opacity:1;stroke-miterlimit:4;" d="M 84,5 100,0"/>
<circle style="fill:#377eb8;stroke:none;fill-opacity:1" id="C-K" cx="84" cy="5" r="0.6" />
<path style="fill:none;stroke:#377eb8;stroke-width:0.3;stroke-linecap:round;stroke-linejoin:round;stroke-opacity:1;stroke-miterlimit:4;" d="M 77,6 84,5"/>
<circle style="fill:#377eb8;stroke:none;fill-opacity:1" id="C-K" cx="77" cy="6" r="0.6" />
<text style="font-size:1px;font-weight:bold;fill:#377eb8;"><tspan x="77" y="5">C-K,9</tspan></text>
<circle style="fill:#4daf4a;stroke:none;fill-opacity:1" id="IPE" cx="100" cy="0" r="0.6" />
<text style="font-size:1px;font-weight:bold;fill:#4daf4a;"><tspan x="100" y="0">IPE,2</tspan></text>
<path style="fill:none;stroke:#4daf4a;stroke-width:0.3;stroke-linecap:round;stroke-linejoin:round;stroke-opacity:1;stroke-miterlimit:4;" d="M 83,4 100,0"/>
<circle style="fill:#4daf4a;stroke:none;fill-opacity:1" id="IPE" cx="83" cy="4" r="0.6" />
<path style="fill:none;stroke:#4daf4a;stroke-width:0.3;stroke-linecap:round;stroke-linejoin:round;stroke-opacity:1;stroke-miterlimit:4;" d="M 77,6 83,4"/>
<circle style="fill:#4daf4a;stroke:none;fill-opacity:1" id="IPE" cx="77" cy="6" r="0.6" />
<text style="font-size:1px;font-weight:bold;fill:#4daf4a;"><tspan x="77" y="5">IPE,9</tspan></text>
<circle style="fill:#f451a7;stroke:none;fill-opacity:1" id="RCIPE" cx="100" cy="0" r="0.6" />
<text style="font-size:1px;font-weight:bold;fill:#f451a7;"><tspan x="100" y="0">RCIPE,2</tspan></text>
<path style="fill:none;stroke:#f451a7;stroke-width:0.3;stroke-linecap:round;stroke-linejoin:round;stroke-opacity:1;stroke-miterlimit:4;" d="M 80,0 100,0"/>
<circle style="fill:#f451a7;stroke:none;fill-opacity:1" id="RCIPE" cx="80" cy="0" r="0.6" />
<path style="fill:none;stroke:#f451a7;stroke-width:0.3;stroke-linecap:round;stroke-linejoin:round;stroke-opacity:1;stroke-miterlimit:4;" d="M 68,0 80,0"/>
<circle style="fill:#f451a7;stroke:none;fill-opacity:1" id="RCIPE" cx="68" cy="0" r="0.6" />
<text style="font-size:1px;font-weight:bold;fill:#f451a7;"><tspan x="68" y="0">RCIPE,9</tspan></text>
<circle style="fill:#a65628;stroke:none;fill-opacity:1" id="STAR/sim/NT" cx="100" cy="0" r="0.6" />
<text style="font-size:1px;font-weight:bold;fill:#a65628;"><tspan x="100" y="0">STAR/sim/NT,2</tspan></text>
<path style="fill:none;stroke:#a65628;stroke-width:0.3;stroke-linecap:round;stroke-linejoin:round;stroke-opacity:1;stroke-miterlimit:4;" d="M 79,9 100,0"/>
<circle style="fill:#a65628;stroke:none;fill-opacity:1" id="STAR/sim/NT" cx="79" cy="9" r="0.6" />
<path style="fill:none;stroke:#a65628;stroke-width:0.3;stroke-linecap:round;stroke-linejoin:round;stroke-opacity:1;stroke-miterlimit:4;" d="M 74,9 79,9"/>
<circle style="fill:#a65628;stroke:none;fill-opacity:1" id="STAR/sim/NT" cx="74" cy="9" r="0.6" />
<text style="font-size:1px;font-weight:bold;fill:#a65628;"><tspan x="74" y="8">STAR/sim/NT,9</tspan></text>
<circle style="fill:#ff7f00;stroke:none;fill-opacity:1" id="IRV-BTR" cx="100" cy="5" r="0.6" />
<text style="font-size:1px;font-weight:bold;fill:#ff7f00;"><tspan x="100" y="4">IRV-BTR,2</tspan></text>
<path style="fill:none;stroke:#ff7f00;stroke-width:0.3;stroke-linecap:round;stroke-linejoin:round;stroke-opacity:1;stroke-miterlimit:4;" d="M 66,8 100,5"/>
<circle style="fill:#ff7f00;stroke:none;fill-opacity:1" id="IRV-BTR" cx="66" cy="8" r="0.6" />
<path style="fill:none;stroke:#ff7f00;stroke-width:0.3;stroke-linecap:round;stroke-linejoin:round;stroke-opacity:1;stroke-miterlimit:4;" d="M 57,5 66,8"/>
<circle style="fill:#ff7f00;stroke:none;fill-opacity:1" id="IRV-BTR" cx="57" cy="5" r="0.6" />
<text style="font-size:1px;font-weight:bold;fill:#ff7f00;"><tspan x="57" y="4">IRV-BTR,9</tspan></text>
<circle style="fill:#984ea3;stroke:none;fill-opacity:1" id="IRV" cx="100" cy="12" r="0.6" />
<text style="font-size:1px;font-weight:bold;fill:#984ea3;"><tspan x="100" y="11">IRV,2</tspan></text>
<path style="fill:none;stroke:#984ea3;stroke-width:0.3;stroke-linecap:round;stroke-linejoin:round;stroke-opacity:1;stroke-miterlimit:4;" d="M 67,7 100,12"/>
<circle style="fill:#984ea3;stroke:none;fill-opacity:1" id="IRV" cx="67" cy="7" r="0.6" />
<path style="fill:none;stroke:#984ea3;stroke-width:0.3;stroke-linecap:round;stroke-linejoin:round;stroke-opacity:1;stroke-miterlimit:4;" d="M 57,5 67,7"/>
<circle style="fill:#984ea3;stroke:none;fill-opacity:1" id="IRV" cx="57" cy="5" r="0.6" />
<text style="font-size:1px;font-weight:bold;fill:#984ea3;"><tspan x="57" y="4">IRV,9</tspan></text>
<circle style="fill:#e41a1c;stroke:none;fill-opacity:1" id="Borda/NT" cx="100" cy="0" r="0.6" />
<text style="font-size:1px;font-weight:bold;fill:#e41a1c;"><tspan x="100" y="0">Borda/NT,2</tspan></text>
<path style="fill:none;stroke:#e41a1c;stroke-width:0.3;stroke-linecap:round;stroke-linejoin:round;stroke-opacity:1;stroke-miterlimit:4;" d="M 81,18 100,0"/>
<circle style="fill:#e41a1c;stroke:none;fill-opacity:1" id="Borda/NT" cx="81" cy="18" r="0.6" />
<path style="fill:none;stroke:#e41a1c;stroke-width:0.3;stroke-linecap:round;stroke-linejoin:round;stroke-opacity:1;stroke-miterlimit:4;" d="M 79,16 81,18"/>
<circle style="fill:#e41a1c;stroke:none;fill-opacity:1" id="Borda/NT" cx="79" cy="16" r="0.6" />
<text style="font-size:1px;font-weight:bold;fill:#e41a1c;"><tspan x="79" y="15">Borda/NT,9</tspan></text>
<circle style="fill:#808080;stroke:none;fill-opacity:1" id="Plur" cx="100" cy="44" r="0.6" />
<text style="font-size:1px;font-weight:bold;fill:#808080;"><tspan x="100" y="43">Plur,2</tspan></text>
<path style="fill:none;stroke:#808080;stroke-width:0.3;stroke-linecap:round;stroke-linejoin:round;stroke-opacity:1;stroke-miterlimit:4;" d="M 91,14 100,44"/>
<circle style="fill:#808080;stroke:none;fill-opacity:1" id="Plur" cx="91" cy="14" r="0.6" />
<path style="fill:none;stroke:#808080;stroke-width:0.3;stroke-linecap:round;stroke-linejoin:round;stroke-opacity:1;stroke-miterlimit:4;" d="M 97,10 91,14"/>
<circle style="fill:#808080;stroke:none;fill-opacity:1" id="Plur" cx="97" cy="10" r="0.6" />
<text style="font-size:1px;font-weight:bold;fill:#808080;"><tspan x="97" y="9">Plur,9</tspan></text>
</g>
</svg>
